<mxfile host="app.diagrams.net" modified="2024-04-26T11:41:25.634Z" agent="Mozilla/5.0 (X11; Linux x86_64) AppleWebKit/537.36 (KHTML, like Gecko) Chrome/124.0.0.0 Safari/537.36" version="24.3.0" etag="ih6tY_bKMUzTywsMWYVq" type="github">
  <diagram name="Page-1" id="RZ6-Jt5stmClvMsitnhd">
    <mxGraphModel>
      <root>
        <mxCell id="0" />
        <mxCell id="1" parent="0" />
      </root>
    </mxGraphModel>
  </diagram>
</mxfile>
